<svg xmlns="http://www.w3.org/2000/svg" width="136" height="47" fill="#ffffff" stroke="#ffffff" viewBox="0 0 136 47"><path class="prefix__cls-1" fill="#ffffff" d="M2.776 14.48v16.59H0V14.48h2.776ZM22.451 31.07h-2.775l-8.354-12.39V46.8H8.547V14.456h2.775l8.354 12.364V0h2.775v31.07ZM38.507 14.48v2.22H34v14.37h-2.775V16.7h-4.53v-2.22h11.811ZM45.551 16.674v4.87h5.845v2.22H45.55v5.084h6.574v2.219h-9.352V14.453h9.352v2.22h-6.574v.002ZM66.051 31.07l-3.896-6.636h-2.12v6.636H57.26V14.48h5.844c1.3 0 2.4.223 3.3.67.901.444 1.575 1.042 2.022 1.79.447.747.67 1.582.67 2.506a4.89 4.89 0 0 1-.963 2.948c-.64.883-1.628 1.484-2.958 1.803l4.188 6.875H66.05v-.002Zm-6.016-8.807h3.07c1.038 0 1.82-.255 2.35-.763.527-.51.792-1.195.792-2.053 0-.86-.26-1.53-.779-2.017-.52-.486-1.307-.728-2.361-.728h-3.07v5.561h-.002ZM76.573 30.651c-.91-.39-1.624-.944-2.144-1.659-.52-.717-.779-1.552-.779-2.507h2.972c.064.717.353 1.306.865 1.766.511.462 1.23.693 2.155.693.925 0 1.706-.226 2.24-.68.535-.453.802-1.038.802-1.755 0-.556-.167-1.01-.498-1.36a3.357 3.357 0 0 0-1.241-.811c-.496-.192-1.18-.397-2.057-.621-1.103-.286-2.002-.576-2.691-.872a4.433 4.433 0 0 1-1.766-1.374c-.487-.621-.732-1.447-.732-2.483 0-.955.243-1.79.732-2.507.487-.717 1.17-1.264 2.046-1.648.876-.384 1.89-.573 3.045-.573 1.639 0 2.982.4 4.03 1.205 1.047.805 1.627 1.906 1.74 3.307h-3.068c-.05-.603-.34-1.122-.877-1.552-.535-.43-1.24-.645-2.119-.645-.796 0-1.445.198-1.948.597-.503.4-.754.97-.754 1.718 0 .51.158.927.476 1.254.316.327.718.584 1.205.776.487.191 1.152.399 1.997.62 1.121.304 2.033.605 2.74.908a4.54 4.54 0 0 1 1.802 1.397c.496.628.743 1.467.743 2.518 0 .844-.232 1.64-.694 2.387-.463.748-1.137 1.35-2.022 1.803-.885.453-1.928.68-3.129.68-1.137 0-2.16-.194-3.07-.584l-.001.002ZM93.428 16.674v4.87h5.845v2.22h-5.845v5.084h6.574v2.219H90.65V14.453h9.352v2.22h-6.574v.002ZM104.956 18.37a8.159 8.159 0 0 1 3.14-3.019c1.323-.724 2.771-1.085 4.345-1.085 1.802 0 3.405.433 4.809 1.301 1.403.868 2.424 2.097 3.055 3.689h-3.336c-.438-.875-1.047-1.529-1.825-1.958-.779-.43-1.682-.645-2.703-.645-1.12 0-2.119.246-2.995.739a5.184 5.184 0 0 0-2.057 2.123c-.496.922-.743 1.997-.743 3.222 0 1.225.247 2.3.743 3.222a5.29 5.29 0 0 0 2.057 2.137c.876.5 1.875.752 2.995.752 1.023 0 1.924-.216 2.703-.646.778-.43 1.387-1.081 1.825-1.957h3.336c-.633 1.591-1.652 2.816-3.055 3.675-1.404.859-3.007 1.288-4.809 1.288-1.59 0-3.044-.361-4.359-1.085a8.2 8.2 0 0 1-3.129-3.02c-.771-1.288-1.156-2.744-1.156-4.368s.385-3.078 1.156-4.369l.003.005ZM135.429 14.48v2.22h-4.506v14.37h-2.776V16.7h-4.53v-2.22h11.812Z"></path></svg>